<svg xmlns="http://www.w3.org/2000/svg" xmlns:xlink="http://www.w3.org/1999/xlink" version="1.1" x="0px" y="0px"
    viewBox="0 0 512 512" style="enable-background:new 0 0 512 512;" xml:space="preserve">
    <g>
        <g>
            <g>
                <g>
                    <rect x="281" y="22" width="30" height="61" fill="#003a6d" />
                    <rect x="361" y="22" width="30" height="61" fill="#003a6d" />
                    <rect x="201" y="22" width="30" height="61" fill="#003a6d" />
                    <rect x="121" y="22" width="30" height="61" fill="#003a6d" />
                </g>
                <g>
                    <rect x="22" y="201" width="61" height="30" fill="#003a6d" />
                    <rect x="22" y="121" width="61" height="30" fill="#003a6d" />
                    <rect x="22" y="281" width="61" height="30" fill="#003a6d" />
                    <rect x="22" y="361" width="61" height="30" fill="#003a6d" />
                </g>
                <g>
                    <rect x="201" y="429" width="30" height="61" fill="#003a6d" />
                    <rect x="121" y="429" width="30" height="61" fill="#003a6d" />
                    <rect x="281" y="429" width="30" height="61" fill="#003a6d" />
                    <rect x="361" y="429" width="30" height="61" fill="#003a6d" />
                </g>
                <g>
                    <rect x="429" y="281" width="61" height="30" fill="#003a6d" />
                    <rect x="429" y="361" width="61" height="30" fill="#003a6d" />
                    <rect x="429" y="201" width="61" height="30" fill="#003a6d" />
                    <rect x="429" y="121" width="61" height="30" fill="#003a6d" />
                </g>
            </g>
            <g>
                <path fill="#003a6d"
                    d="M160.483,352.236h191.033V159.764H160.483V352.236z M314.993,307.829h-21.918v-70.347h21.918V307.829z M304.034,204.171     c6.99,0,12.266,5.307,12.308,12.359c0.09,3.298-1.077,6.368-3.289,8.657c-2.33,2.41-5.628,3.736-9.289,3.736     c-6.826,0-12.173-5.406-12.173-12.309C291.59,209.636,297.057,204.171,304.034,204.171z M223.94,206.816h21.359l34.471,101.012     h-23.168l-9.718-28.614h-25.033l-9.448,28.614h-22.785L223.94,206.816z" />
                <path fill="#003a6d"
                    d="M234.39,240.448c-0.021-0.06-0.041-0.121-0.061-0.181l-6.677,19.729h13.39L234.39,240.448z" />
                <path fill="#003a6d"
                    d="M83.125,82v348h345.751V82H83.125z M381.69,367.322c0,8.332-6.755,15.087-15.087,15.087H145.397     c-8.332,0-15.087-6.755-15.087-15.087V144.678c0-8.332,6.755-15.087,15.087-15.087h221.207c8.332,0,15.087,6.755,15.087,15.087     V367.322z" />
            </g>
        </g>
    </g>
</svg>